<?xml version="1.0" standalone="yes"?>

<svg version="1.1" viewBox="0.0 0.0 960.0 720.0" fill="none" stroke="none" stroke-linecap="square" stroke-miterlimit="10" xmlns="http://www.w3.org/2000/svg" xmlns:xlink="http://www.w3.org/1999/xlink"><clipPath id="p.0"><path d="m0 0l960.0 0l0 720.0l-960.0 0l0 -720.0z" clip-rule="nonzero"></path></clipPath><g clip-path="url(#p.0)"><path fill="#000000" fill-opacity="0.0" d="m0 0l960.0 0l0 720.0l-960.0 0z" fill-rule="evenodd"></path><path fill="#000000" fill-opacity="0.0" d="m70.65354 163.73491l47.83117 385.98425l632.64124 0l-47.831177 -385.98425z" fill-rule="evenodd"></path><path stroke="#000000" stroke-width="1.0" stroke-linejoin="round" stroke-linecap="butt" d="m70.65354 163.73491l47.83117 385.98425l632.64124 0l-47.831177 -385.98425z" fill-rule="evenodd"></path><path fill="#000000" fill-opacity="0.0" d="m116.527534 549.7192l160.38162 101.88977l634.8624 0l-160.38159 -101.88977z" fill-rule="evenodd"></path><path stroke="#000000" stroke-width="1.0" stroke-linejoin="round" stroke-linecap="butt" d="m116.527534 549.7192l160.38162 101.88977l634.8624 0l-160.38159 -101.88977z" fill-rule="evenodd"></path><path fill="#000000" fill-opacity="0.0" d="m188.41208 570.8399l560.75586 -2.236206" fill-rule="evenodd"></path><path stroke="#000000" stroke-width="1.0" stroke-linejoin="round" stroke-linecap="butt" d="m188.41208 570.8399l560.75586 -2.236206" fill-rule="evenodd"></path><path fill="#000000" fill-opacity="0.0" d="m221.4357 588.8399l560.75586 -2.236206" fill-rule="evenodd"></path><path stroke="#000000" stroke-width="1.0" stroke-linejoin="round" stroke-linecap="butt" d="m221.4357 588.8399l560.75586 -2.236206" fill-rule="evenodd"></path><path fill="#000000" fill-opacity="0.0" d="m254.05511 606.8399l560.7559 -2.236206" fill-rule="evenodd"></path><path stroke="#000000" stroke-width="1.0" stroke-linejoin="round" stroke-linecap="butt" d="m254.05511 606.8399l560.7559 -2.236206" fill-rule="evenodd"></path><path fill="#000000" fill-opacity="0.0" d="m211.96326 557.3832l81.85828 48.22052" fill-rule="evenodd"></path><path stroke="#000000" stroke-width="1.0" stroke-linejoin="round" stroke-linecap="butt" d="m211.96326 557.3832l81.85828 48.22052" fill-rule="evenodd"></path><path fill="#000000" fill-opacity="0.0" d="m254.05511 557.3832l81.85828 48.22052" fill-rule="evenodd"></path><path stroke="#000000" stroke-width="1.0" stroke-linejoin="round" stroke-linecap="butt" d="m254.05511 557.3832l81.85828 48.22052" fill-rule="evenodd"></path><path fill="#000000" fill-opacity="0.0" d="m293.82153 557.3819l81.858246 48.22046" fill-rule="evenodd"></path><path stroke="#000000" stroke-width="1.0" stroke-linejoin="round" stroke-linecap="butt" d="m293.82153 557.3819l81.858246 48.22046" fill-rule="evenodd"></path><path fill="#000000" fill-opacity="0.0" d="m335.9134 557.3832l81.85828 48.22052" fill-rule="evenodd"></path><path stroke="#000000" stroke-width="1.0" stroke-linejoin="round" stroke-linecap="butt" d="m335.9134 557.3832l81.85828 48.22052" fill-rule="evenodd"></path><path fill="#000000" fill-opacity="0.0" d="m375.67978 557.3832l81.85828 48.22052" fill-rule="evenodd"></path><path stroke="#000000" stroke-width="1.0" stroke-linejoin="round" stroke-linecap="butt" d="m375.67978 557.3832l81.85828 48.22052" fill-rule="evenodd"></path><path fill="#000000" fill-opacity="0.0" d="m417.77167 557.3832l81.858246 48.22052" fill-rule="evenodd"></path><path stroke="#000000" stroke-width="1.0" stroke-linejoin="round" stroke-linecap="butt" d="m417.77167 557.3832l81.858246 48.22052" fill-rule="evenodd"></path><path fill="#000000" fill-opacity="0.0" d="m457.53806 557.3819l81.858246 48.22046" fill-rule="evenodd"></path><path stroke="#000000" stroke-width="1.0" stroke-linejoin="round" stroke-linecap="butt" d="m457.53806 557.3819l81.858246 48.22046" fill-rule="evenodd"></path><path fill="#000000" fill-opacity="0.0" d="m499.6299 557.3832l81.858246 48.22052" fill-rule="evenodd"></path><path stroke="#000000" stroke-width="1.0" stroke-linejoin="round" stroke-linecap="butt" d="m499.6299 557.3832l81.858246 48.22052" fill-rule="evenodd"></path><path fill="#000000" fill-opacity="0.0" d="m541.7218 557.3832l81.85828 48.22052" fill-rule="evenodd"></path><path stroke="#000000" stroke-width="1.0" stroke-linejoin="round" stroke-linecap="butt" d="m541.7218 557.3832l81.85828 48.22052" fill-rule="evenodd"></path><path fill="#000000" fill-opacity="0.0" d="m583.81366 557.3832l81.85828 48.22052" fill-rule="evenodd"></path><path stroke="#000000" stroke-width="1.0" stroke-linejoin="round" stroke-linecap="butt" d="m583.81366 557.3832l81.85828 48.22052" fill-rule="evenodd"></path><path fill="#000000" fill-opacity="0.0" d="m623.5801 557.3819l81.858215 48.22046" fill-rule="evenodd"></path><path stroke="#000000" stroke-width="1.0" stroke-linejoin="round" stroke-linecap="butt" d="m623.5801 557.3819l81.858215 48.22046" fill-rule="evenodd"></path><path fill="#000000" fill-opacity="0.0" d="m665.67194 557.3832l81.85828 48.22052" fill-rule="evenodd"></path><path stroke="#000000" stroke-width="1.0" stroke-linejoin="round" stroke-linecap="butt" d="m665.67194 557.3832l81.85828 48.22052" fill-rule="evenodd"></path><path fill="#000000" fill-opacity="0.0" d="m705.4383 557.3832l81.85828 48.22052" fill-rule="evenodd"></path><path stroke="#000000" stroke-width="1.0" stroke-linejoin="round" stroke-linecap="butt" d="m705.4383 557.3832l81.85828 48.22052" fill-rule="evenodd"></path><path fill="#000000" fill-opacity="0.0" d="m74.01837 189.5328l632.53546 -1.1338501" fill-rule="evenodd"></path><path stroke="#000000" stroke-width="1.0" stroke-linejoin="round" stroke-linecap="butt" d="m74.01837 189.5328l632.53546 -1.1338501" fill-rule="evenodd"></path><path fill="#000000" fill-opacity="0.0" d="m78.50656 189.5328l5.3307114 -21.32283l84.67716 0l5.3307037 21.32283z" fill-rule="evenodd"></path><path stroke="#000000" stroke-width="1.0" stroke-linejoin="round" stroke-linecap="butt" d="m78.50656 189.5328l5.3307114 -21.32283l84.67716 0l5.3307037 21.32283z" fill-rule="evenodd"></path><path fill="#000000" fill-opacity="0.0" d="m78.50656 163.73491l69.543304 0l0 16.818893l-69.543304 0z" fill-rule="evenodd"></path><path fill="#000000" d="m94.13156 180.65318q-1.09375 1.203125 -2.515625 1.203125q-0.78125 0 -1.453125 -0.34375q-0.671875 -0.34375 -1.15625 -0.90625q-0.484375 -0.5625 -0.765625 -1.265625q-0.265625 -0.71875 -0.265625 -1.46875q0 -0.78125 0.265625 -1.484375q0.265625 -0.71875 0.75 -1.265625q0.484375 -0.546875 1.140625 -0.859375q0.65625 -0.328125 1.4375 -0.328125q0.578125 0 1.046875 0.125q0.484375 0.125 0.84375 0.359375q0.375 0.21875 0.640625 0.53125q0.265625 0.3125 0.453125 0.6875l-0.59375 0.390625q-0.375 -0.71875 -1.0 -1.0625q-0.609375 -0.34375 -1.390625 -0.34375q-0.65625 0 -1.1875 0.28125q-0.515625 0.265625 -0.890625 0.734375q-0.359375 0.453125 -0.5625 1.046875q-0.1875 0.578125 -0.1875 1.203125q0 0.65625 0.21875 1.25q0.234375 0.59375 0.625 1.046875q0.390625 0.4375 0.921875 0.703125q0.546875 0.265625 1.171875 0.265625q0.671875 0 1.28125 -0.3125q0.609375 -0.3125 1.171875 -1.0l0 -1.296875l-1.734375 0l0 -0.59375l2.375 0l0 3.84375l-0.640625 0l0 -1.140625zm4.270584 1.25q-0.625 0 -1.140625 -0.234375q-0.515625 -0.234375 -0.90625 -0.640625q-0.375 -0.40625 -0.59375 -0.9375q-0.203125 -0.546875 -0.203125 -1.140625q0 -0.609375 0.21875 -1.140625q0.21875 -0.546875 0.59375 -0.953125q0.375 -0.40625 0.890625 -0.640625q0.53125 -0.25 1.140625 -0.25q0.625 0 1.140625 0.25q0.515625 0.234375 0.890625 0.640625q0.390625 0.40625 0.59375 0.953125q0.21875 0.53125 0.21875 1.140625q0 0.59375 -0.203125 1.140625q-0.203125 0.53125 -0.59375 0.9375q-0.375 0.40625 -0.90625 0.640625q-0.515625 0.234375 -1.140625 0.234375zm-2.078125 -2.953125q0 0.484375 0.15625 0.90625q0.171875 0.40625 0.453125 0.71875q0.28125 0.3125 0.65625 0.5q0.390625 0.171875 0.8125 0.171875q0.4375 0 0.8125 -0.171875q0.375 -0.1875 0.65625 -0.5q0.296875 -0.328125 0.453125 -0.734375q0.171875 -0.421875 0.171875 -0.90625q0 -0.46875 -0.171875 -0.890625q-0.15625 -0.4375 -0.453125 -0.75q-0.28125 -0.3125 -0.65625 -0.484375q-0.375 -0.1875 -0.8125 -0.1875q-0.421875 0 -0.796875 0.1875q-0.375 0.171875 -0.671875 0.5q-0.28125 0.3125 -0.453125 0.734375q-0.15625 0.421875 -0.15625 0.90625zm8.418655 2.953125q-0.625 0 -1.140625 -0.234375q-0.515625 -0.234375 -0.90625 -0.640625q-0.375 -0.40625 -0.59375 -0.9375q-0.203125 -0.546875 -0.203125 -1.140625q0 -0.609375 0.21875 -1.140625q0.21875 -0.546875 0.59375 -0.953125q0.375 -0.40625 0.890625 -0.640625q0.53125 -0.25 1.140625 -0.25q0.625 0 1.140625 0.25q0.515625 0.234375 0.890625 0.640625q0.390625 0.40625 0.59375 0.953125q0.21875 0.53125 0.21875 1.140625q0 0.59375 -0.203125 1.140625q-0.203125 0.53125 -0.59375 0.9375q-0.375 0.40625 -0.90625 0.640625q-0.515625 0.234375 -1.140625 0.234375zm-2.078125 -2.953125q0 0.484375 0.15625 0.90625q0.171875 0.40625 0.453125 0.71875q0.28125 0.3125 0.65625 0.5q0.390625 0.171875 0.8125 0.171875q0.4375 0 0.8125 -0.171875q0.375 -0.1875 0.65625 -0.5q0.296875 -0.328125 0.453125 -0.734375q0.171875 -0.421875 0.171875 -0.90625q0 -0.46875 -0.171875 -0.890625q-0.15625 -0.4375 -0.453125 -0.75q-0.28125 -0.3125 -0.65625 -0.484375q-0.375 -0.1875 -0.8125 -0.1875q-0.421875 0 -0.796875 0.1875q-0.375 0.171875 -0.671875 0.5q-0.28125 0.3125 -0.453125 0.734375q-0.15625 0.421875 -0.15625 0.90625zm8.324905 2.953125q-0.59375 0 -1.09375 -0.25q-0.5 -0.25 -0.875 -0.65625q-0.359375 -0.40625 -0.5625 -0.9375q-0.203125 -0.53125 -0.203125 -1.109375q0 -0.609375 0.203125 -1.15625q0.203125 -0.546875 0.546875 -0.953125q0.34375 -0.40625 0.8125 -0.640625q0.484375 -0.234375 1.0625 -0.234375q0.71875 0 1.28125 0.375q0.5625 0.375 0.875 0.921875l0 -3.5l0.75 0l0 7.0625q0 0.3125 0.265625 0.3125l0 0.65625q-0.15625 0.03125 -0.265625 0.03125q-0.265625 0 -0.46875 -0.171875q-0.1875 -0.171875 -0.1875 -0.40625l0 -0.5625q-0.34375 0.5625 -0.921875 0.890625q-0.578125 0.328125 -1.21875 0.328125zm0.171875 -0.65625q0.28125 0 0.59375 -0.109375q0.3125 -0.109375 0.578125 -0.296875q0.28125 -0.203125 0.46875 -0.453125q0.203125 -0.265625 0.234375 -0.5625l0 -1.765625q-0.109375 -0.296875 -0.3125 -0.546875q-0.203125 -0.265625 -0.484375 -0.46875q-0.265625 -0.203125 -0.578125 -0.3125q-0.296875 -0.109375 -0.59375 -0.109375q-0.46875 0 -0.84375 0.203125q-0.375 0.1875 -0.640625 0.515625q-0.265625 0.328125 -0.421875 0.75q-0.140625 0.421875 -0.140625 0.859375q0 0.453125 0.171875 0.875q0.171875 0.421875 0.453125 0.734375q0.28125 0.3125 0.671875 0.5q0.390625 0.1875 0.84375 0.1875zm11.548752 -5.796875q-0.328125 -0.375 -0.890625 -0.609375q-0.546875 -0.234375 -1.25 -0.234375q-1.03125 0 -1.5 0.390625q-0.46875 0.390625 -0.46875 1.0625q0 0.359375 0.125 0.59375q0.125 0.21875 0.390625 0.390625q0.265625 0.15625 0.671875 0.28125q0.40625 0.109375 0.96875 0.234375q0.625 0.125 1.125 0.296875q0.5 0.171875 0.84375 0.421875q0.359375 0.234375 0.546875 0.59375q0.1875 0.34375 0.1875 0.875q0 0.546875 -0.203125 0.9375q-0.203125 0.390625 -0.578125 0.65625q-0.375 0.265625 -0.890625 0.390625q-0.515625 0.125 -1.140625 0.125q-1.8125 0 -3.125 -1.125l0.375 -0.625q0.21875 0.21875 0.5 0.421875q0.296875 0.1875 0.65625 0.34375q0.359375 0.140625 0.765625 0.234375q0.40625 0.078125 0.859375 0.078125q0.921875 0 1.4375 -0.328125q0.53125 -0.34375 0.53125 -1.03125q0 -0.359375 -0.15625 -0.609375q-0.140625 -0.25 -0.4375 -0.421875q-0.296875 -0.1875 -0.734375 -0.3125q-0.4375 -0.140625 -1.015625 -0.28125q-0.625 -0.140625 -1.09375 -0.28125q-0.453125 -0.15625 -0.78125 -0.390625q-0.3125 -0.234375 -0.46875 -0.546875q-0.15625 -0.328125 -0.15625 -0.8125q0 -0.53125 0.203125 -0.953125q0.203125 -0.421875 0.578125 -0.703125q0.375 -0.28125 0.875 -0.421875q0.515625 -0.15625 1.125 -0.15625q0.78125 0 1.390625 0.234375q0.609375 0.234375 1.109375 0.65625l-0.375 0.625zm1.7496643 6.34375l0 -5.734375l0.75 0l0 5.734375l-0.75 0zm0 -6.9375l0 -1.09375l0.75 0l0 1.09375l-0.75 0zm5.0730896 6.65625q-0.0625 0.046875 -0.203125 0.109375q-0.125 0.046875 -0.296875 0.109375q-0.15625 0.046875 -0.359375 0.078125q-0.203125 0.046875 -0.4375 0.046875q-0.25 0 -0.46875 -0.0625q-0.21875 -0.0625 -0.390625 -0.203125q-0.15625 -0.140625 -0.265625 -0.34375q-0.09375 -0.21875 -0.09375 -0.484375l0 -4.109375l-0.78125 0l0 -0.59375l0.78125 0l0 -1.9375l0.75 0l0 1.9375l1.328125 0l0 0.59375l-1.328125 0l0 3.890625q0.03125 0.328125 0.234375 0.484375q0.203125 0.140625 0.46875 0.140625q0.3125 0 0.546875 -0.109375q0.25 -0.109375 0.3125 -0.140625l0.203125 0.59375zm3.2886353 0.390625q-0.625 0 -1.15625 -0.234375q-0.515625 -0.234375 -0.90625 -0.640625q-0.375 -0.421875 -0.59375 -0.953125q-0.21875 -0.546875 -0.21875 -1.15625q0 -0.609375 0.21875 -1.140625q0.21875 -0.53125 0.59375 -0.9375q0.375 -0.40625 0.90625 -0.640625q0.53125 -0.234375 1.140625 -0.234375q0.640625 0 1.15625 0.234375q0.53125 0.234375 0.890625 0.640625q0.375 0.40625 0.578125 0.9375q0.21875 0.53125 0.21875 1.125q0 0.078125 0 0.171875q0 0.09375 -0.015625 0.125l-4.90625 0q0.046875 0.453125 0.21875 0.84375q0.1875 0.390625 0.46875 0.6875q0.28125 0.28125 0.65625 0.4375q0.375 0.15625 0.78125 0.15625q0.28125 0 0.546875 -0.0625q0.28125 -0.078125 0.515625 -0.203125q0.234375 -0.140625 0.421875 -0.328125q0.1875 -0.203125 0.28125 -0.4375l0.640625 0.1875q-0.125 0.3125 -0.375 0.578125q-0.234375 0.25 -0.5625 0.453125q-0.3125 0.1875 -0.703125 0.28125q-0.375 0.109375 -0.796875 0.109375zm2.109375 -3.28125q-0.03125 -0.453125 -0.21875 -0.828125q-0.171875 -0.390625 -0.453125 -0.65625q-0.28125 -0.28125 -0.65625 -0.4375q-0.359375 -0.15625 -0.78125 -0.15625q-0.421875 0 -0.796875 0.15625q-0.359375 0.15625 -0.640625 0.4375q-0.28125 0.265625 -0.453125 0.65625q-0.171875 0.375 -0.203125 0.828125l4.203125 0z" fill-rule="nonzero"></path><path fill="#000000" fill-opacity="0.0" d="m149.74278 178.6532l3.8740082 4.6299133" fill-rule="evenodd"></path><path stroke="#000000" stroke-width="1.0" stroke-linejoin="round" stroke-linecap="butt" d="m149.74278 178.6532l3.8740082 4.6299133" fill-rule="evenodd"></path><path fill="#000000" fill-opacity="0.0" d="m153.73456 183.27953l6.299225 -8.818893" fill-rule="evenodd"></path><path stroke="#000000" stroke-width="1.0" stroke-linejoin="round" stroke-linecap="butt" d="m153.73456 183.27953l6.299225 -8.818893" fill-rule="evenodd"></path><path fill="#000000" fill-opacity="0.0" d="m326.3521 214.23042l320.75592 -0.06298828l0 57.196854l-320.75592 0.06298828z" fill-rule="evenodd"></path><path fill="#000000" d="m338.19586 253.9481l0 -22.71875l9.609375 -0.0018920898q1.46875 -2.89917E-4 2.703125 0.62446594q1.234375 0.62475586 2.125 1.640213q0.890625 0.9998169 1.390625 2.2809753q0.5 1.2811584 0.5 2.5936584q0 1.234375 -0.375 2.375061q-0.359375 1.1407013 -1.015625 2.0626984q-0.65625 0.9063873 -1.59375 1.5315704q-0.921875 0.6251831 -2.078125 0.844162l5.578125 8.764526l-2.53125 5.0354004E-4l-5.34375 -8.389587l-6.71875 0.0013275146l0 8.390625l-2.25 4.4250488E-4zm2.25 -10.3754425l7.421875 -0.0014648438q0.984375 -1.8310547E-4 1.796875 -0.42222595q0.828125 -0.43766785 1.390625 -1.1721497q0.578125 -0.7344818 0.890625 -1.6564178q0.328125 -0.93756104 0.328125 -1.953186q0 -1.03125 -0.375 -1.968689q-0.359375 -0.9530487 -0.984375 -1.6560516q-0.625 -0.7030029 -1.46875 -1.1090851q-0.84375 -0.42170715 -1.78125 -0.42152405l-7.21875 0.0014190674l0 10.359375zm25.396027 10.68251q-1.8125 3.5095215E-4 -3.34375 -0.6868439q-1.515625 -0.6872101 -2.640625 -1.8744812q-1.109375 -1.2029114 -1.734375 -2.7652893q-0.625 -1.5780029 -0.625 -3.374878q0 -1.75 0.625 -3.296997q0.625 -1.5626221 1.71875 -2.7190857q1.109375 -1.1720886 2.640625 -1.8598938q1.546875 -0.6878052 3.328125 -0.6881561q1.828125 -3.5095215E-4 3.34375 0.6868439q1.53125 0.6872101 2.609375 1.8744965q1.09375 1.1716614 1.703125 2.7184143q0.609375 1.5311279 0.609375 3.249878q0 0.265625 0 0.53125q0 0.25 -0.03125 0.34375l-14.28125 0.0028076172q0.09375 1.3437347 0.625 2.484253q0.53125 1.1248932 1.359375 1.9684906q0.84375 0.82795715 1.90625 1.2964935q1.078125 0.45291138 2.296875 0.4526825q0.796875 -1.6784668E-4 1.59375 -0.21907043q0.796875 -0.23452759 1.46875 -0.6096649q0.671875 -0.39076233 1.21875 -0.95336914q0.546875 -0.5626068 0.828125 -1.2345276l1.890625 0.51524353q-0.390625 0.9375763 -1.09375 1.6877289q-0.703125 0.7501373 -1.625 1.3128052q-0.921875 0.5626831 -2.046875 0.859787q-1.125 0.29708862 -2.34375 0.29733276zm6.15625 -9.532455q-0.109375 -1.3437347 -0.640625 -2.437378q-0.515625 -1.1092682 -1.34375 -1.9059906q-0.8125 -0.81233215 -1.890625 -1.2496185q-1.0625 -0.45292664 -2.28125 -0.4526825q-1.203125 2.2888184E-4 -2.296875 0.4535675q-1.09375 0.43772888 -1.90625 1.2503815q-0.8125 0.7970276 -1.3125 1.9221344q-0.5 1.1094666 -0.59375 2.421997l12.265625 -0.0024108887zm10.971558 9.529083q-1.953125 3.9672852E-4 -3.8125 -0.62423706q-1.859375 -0.64027405 -3.203125 -1.8587494l1.0 -1.4689484q1.40625 1.1403503 2.859375 1.7181854q1.453125 0.5778351 3.125 0.57751465q2.015625 -3.9672852E-4 3.203125 -0.8131256q1.203125 -0.81274414 1.203125 -2.3283691q0 -0.703125 -0.3125 -1.156189q-0.3125 -0.46868896 -0.9375 -0.8123169q-0.625 -0.35925293 -1.578125 -0.62467957q-0.9375 -0.2810669 -2.1875 -0.56207275q-1.4375 -0.35910034 -2.5 -0.7026367q-1.046875 -0.35917664 -1.734375 -0.7965393q-0.6875 -0.45298767 -1.03125 -1.1091766q-0.328125 -0.6561737 -0.328125 -1.6561737q0 -1.25 0.484375 -2.2032318q0.5 -0.96884155 1.34375 -1.5783844q0.859375 -0.62516785 1.984375 -0.93788147q1.140625 -0.32835388 2.421875 -0.32861328q1.921875 -3.6621094E-4 3.484375 0.6243286q1.5625 0.6090698 2.53125 1.6401215l-1.0625 1.2814636q-0.921875 -0.9685669 -2.25 -1.4370575q-1.328125 -0.4841156 -2.765625 -0.48384094q-0.859375 1.6784668E-4 -1.609375 0.18782043q-0.734375 0.17201233 -1.296875 0.5627594q-0.546875 0.3751068 -0.875 0.96891785q-0.3125 0.57818604 -0.3125 1.390686q0 0.671875 0.21875 1.0937042q0.21875 0.40620422 0.734375 0.7186127q0.515625 0.2967682 1.296875 0.5466156q0.78125 0.23422241 1.90625 0.48399353q1.59375 0.39031982 2.8125 0.7807007q1.21875 0.37477112 2.03125 0.8902283q0.8125 0.4998474 1.234375 1.2341309q0.421875 0.7342987 0.421875 1.7967987q0 2.296875 -1.765625 3.640976q-1.765625 1.3440857 -4.734375 1.3446655zm18.052765 -1.112915q-0.203125 0.09379578 -0.578125 0.25012207q-0.359375 0.15631104 -0.84375 0.3282776q-0.46875 0.15634155 -1.078125 0.28146362q-0.609375 0.12512207 -1.28125 0.1252594q-0.703125 1.373291E-4 -1.34375 -0.1872406q-0.640625 -0.18737793 -1.125 -0.5778961q-0.46875 -0.40615845 -0.765625 -1.0154877q-0.28125 -0.60931396 -0.28125 -1.421814l0 -11.921875l-2.3125 4.5776367E-4l0 -1.734375l2.3125 -4.5776367E-4l0 -5.625l2.171875 -4.272461E-4l0 5.625l3.84375 -7.4768066E-4l0 1.734375l-3.84375 7.4768066E-4l0 11.328125q0.0625 0.92185974 0.65625 1.3592529q0.59375 0.42175293 1.359375 0.42160034q0.921875 -1.8310547E-4 1.625 -0.29719543q0.703125 -0.31263733 0.90625 -0.43766785l0.578125 1.7655029zm11.032532 -13.955292q-2.203125 0.062927246 -3.84375 1.2195129q-1.625 1.1409454 -2.296875 3.1566925l0 10.375l-2.171875 4.272461E-4l0 -16.671875l2.046875 -3.9672852E-4l0 4.0q0.921875 -1.9220581 2.484375 -3.0004883q1.578125 -1.0940704 3.359375 -1.0944061q0.265625 -6.1035156E-5 0.421875 0.031158447l0 1.984375zm2.9195251 14.749435l0 -16.671875l2.171875 -4.272461E-4l0 16.671875l-2.171875 4.272461E-4zm0 -20.15625l0 -3.203125l2.171875 -4.272461E-4l0 3.203125l-2.171875 4.272461E-4zm5.819763 11.764481q0 -1.75 0.609375 -3.312622q0.609375 -1.5782471 1.703125 -2.7347107q1.109375 -1.1720886 2.640625 -1.8442688q1.546875 -0.6721802 3.390625 -0.6725464q2.375 -4.5776367E-4 4.125 1.0773163q1.765625 1.062149 2.671875 2.8901062l-2.125 0.672287q-0.703125 -1.2811127 -1.96875 -1.9996185q-1.25 -0.7341156 -2.796875 -0.7338257q-1.28125 2.593994E-4 -2.390625 0.516098q-1.09375 0.5158386 -1.90625 1.4066315q-0.8125 0.8751526 -1.28125 2.0939941q-0.46875 1.2032166 -0.46875 2.6407166q0 1.421875 0.484375 2.6717834q0.484375 1.2342834 1.3125 2.1559906q0.828125 0.9060974 1.921875 1.4371185q1.109375 0.5310364 2.359375 0.53079224q0.8125 -1.5258789E-4 1.59375 -0.21905518q0.78125 -0.23452759 1.453125 -0.6252899q0.671875 -0.40638733 1.140625 -0.9221039q0.484375 -0.51571655 0.6875 -1.0938873l2.140625 0.640213q-0.359375 0.90631104 -1.03125 1.6564484q-0.671875 0.7501373 -1.578125 1.3128052q-0.90625 0.5626831 -2.015625 0.8597717q-1.109375 0.29710388 -2.296875 0.29733276q-1.8125 3.5095215E-4 -3.359375 -0.6868439q-1.53125 -0.6871948 -2.65625 -1.8744812q-1.109375 -1.2028961 -1.734375 -2.765274q-0.625 -1.5780029 -0.625 -3.374878zm26.724274 7.588501q-0.203125 0.09378052 -0.578125 0.2501068q-0.359375 0.1563263 -0.84375 0.32829285q-0.46875 0.15634155 -1.078125 0.28146362q-0.609375 0.12512207 -1.28125 0.12524414q-0.703125 1.373291E-4 -1.34375 -0.18722534q-0.640625 -0.18737793 -1.125 -0.5779114q-0.46875 -0.40615845 -0.765625 -1.0154724q-0.28125 -0.60931396 -0.28125 -1.421814l0 -11.921875l-2.3125 4.4250488E-4l0 -1.734375l2.3125 -4.4250488E-4l0 -5.625l2.171875 -4.272461E-4l0 5.625l3.84375 -7.6293945E-4l0 1.734375l-3.84375 7.6293945E-4l0 11.328125q0.0625 0.92185974 0.65625 1.3592377q0.59375 0.4217682 1.359375 0.4216156q0.921875 -1.8310547E-4 1.625 -0.29719543q0.703125 -0.31263733 0.90625 -0.4376831l0.578125 1.7655182zm9.907532 1.1074219q-1.8125 3.6621094E-4 -3.34375 -0.6868439q-1.515625 -0.6871948 -2.640625 -1.8744812q-1.109375 -1.2028961 -1.734375 -2.765274q-0.625 -1.5780029 -0.625 -3.374878q0 -1.75 0.625 -3.296997q0.625 -1.5626373 1.71875 -2.719101q1.109375 -1.1720886 2.640625 -1.8598938q1.546875 -0.6877899 3.328125 -0.68814087q1.828125 -3.6621094E-4 3.34375 0.6868439q1.53125 0.6871948 2.609375 1.8744812q1.09375 1.1716614 1.703125 2.7184143q0.609375 1.5311279 0.609375 3.249878q0 0.265625 0 0.53125q0 0.25 -0.03125 0.34376526l-14.28125 0.0027923584q0.09375 1.3437347 0.625 2.484253q0.53125 1.1249084 1.359375 1.9684906q0.84375 0.82795715 1.90625 1.2964935q1.078125 0.45291138 2.296875 0.4526825q0.796875 -1.5258789E-4 1.59375 -0.21907043q0.796875 -0.23452759 1.46875 -0.6096649q0.671875 -0.39074707 1.21875 -0.9533539q0.546875 -0.5626068 0.828125 -1.2345428l1.890625 0.5152588q-0.390625 0.9375763 -1.09375 1.6877136q-0.703125 0.7501373 -1.625 1.3128204q-0.921875 0.5626831 -2.046875 0.8597717q-1.125 0.29710388 -2.34375 0.29733276zm6.15625 -9.532455q-0.109375 -1.3437347 -0.640625 -2.437378q-0.515625 -1.1092682 -1.34375 -1.9059906q-0.8125 -0.81233215 -1.890625 -1.2496185q-1.0625 -0.45291138 -2.28125 -0.4526825q-1.203125 2.4414062E-4 -2.296875 0.45358276q-1.09375 0.43771362 -1.90625 1.2503662q-0.8125 0.79704285 -1.3125 1.9221344q-0.5 1.1094818 -0.59375 2.421997l12.265625 -0.0024108887zm12.284027 9.528839q-1.734375 3.3569336E-4 -3.203125 -0.7181244q-1.46875 -0.7184601 -2.53125 -1.8901215q-1.046875 -1.1873016 -1.640625 -2.7340546q-0.59375 -1.5623932 -0.59375 -3.2498932q0 -1.765625 0.578125 -3.3438568q0.578125 -1.5938568 1.578125 -2.7659302q1.015625 -1.1876984 2.40625 -1.875473q1.390625 -0.68777466 3.046875 -0.68811035q2.125 -4.119873E-4 3.75 1.1086426q1.625 1.0934296 2.5625 2.6557465l0 -10.171875l2.171875 -4.272461E-4l0 20.546875q0 0.890625 0.765625 0.8904724l0 1.921875q-0.484375 0.09385681 -0.765625 0.09390259q-0.765625 1.5258789E-4 -1.34375 -0.48410034q-0.578125 -0.4998932 -0.578125 -1.2030182l0 -1.640625q-0.984375 1.6408234 -2.6875 2.594284q-1.6875 0.95344543 -3.515625 0.95381165zm0.484375 -1.9063416q0.796875 -1.6784668E-4 1.703125 -0.3128357q0.921875 -0.3283081 1.71875 -0.8909607q0.796875 -0.56266785 1.359375 -1.3127747q0.5625 -0.7501068 0.6875 -1.6251373l0 -5.140625q-0.328125 -0.87493896 -0.9375 -1.6248169q-0.609375 -0.7498779 -1.390625 -1.3278503q-0.78125 -0.5779724 -1.6875 -0.8902893q-0.890625 -0.32795715 -1.75 -0.3277893q-1.34375 2.746582E-4 -2.4375 0.5786133q-1.078125 0.5783386 -1.859375 1.5316162q-0.78125 0.9376526 -1.203125 2.156479q-0.421875 1.2188416 -0.421875 2.5000916q0 1.34375 0.484375 2.5623932q0.484375 1.2030334 1.3125 2.1247559q0.828125 0.90608215 1.96875 1.4527283q1.140625 0.5466614 2.453125 0.546402z" fill-rule="nonzero"></path><path fill="#000000" fill-opacity="0.0" d="m193.29921 257.9449l435.1811 0l0 21.322845l-435.1811 0z" fill-rule="evenodd"></path><path fill="#000000" d="m210.00233 271.323l-3.28125 0l0 8.421875l-0.90625 0l0 -8.421875l-3.296875 0l0 -0.8125l7.484375 0l0 0.8125zm7.098877 8.421875l-0.890625 0l0 -3.78125q0 -1.15625 -0.40625 -1.71875q-0.390625 -0.578125 -1.15625 -0.578125q-0.375 0 -0.75 0.15625q-0.359375 0.140625 -0.6875 0.40625q-0.328125 0.25 -0.578125 0.609375q-0.234375 0.34375 -0.34375 0.765625l0 4.140625l-0.890625 0l0 -9.484375l0.890625 0l0 4.25q0.40625 -0.765625 1.109375 -1.203125q0.71875 -0.453125 1.5625 -0.453125q0.578125 0 0.984375 0.21875q0.40625 0.203125 0.65625 0.59375q0.265625 0.390625 0.375 0.9375q0.125 0.53125 0.125 1.171875l0 3.96875zm2.0671387 0l0 -6.765625l0.890625 0l0 6.765625l-0.890625 0zm0 -8.1875l0 -1.296875l0.890625 0l0 1.296875l-0.890625 0zm5.1555176 8.3125q-0.78125 0 -1.546875 -0.25q-0.75 -0.265625 -1.296875 -0.765625l0.40625 -0.59375q0.578125 0.46875 1.15625 0.703125q0.59375 0.234375 1.28125 0.234375q0.8125 0 1.296875 -0.328125q0.484375 -0.328125 0.484375 -0.9375q0 -0.296875 -0.125 -0.484375q-0.125 -0.1875 -0.390625 -0.328125q-0.25 -0.140625 -0.640625 -0.25q-0.375 -0.109375 -0.875 -0.234375q-0.59375 -0.140625 -1.03125 -0.28125q-0.421875 -0.140625 -0.703125 -0.328125q-0.265625 -0.1875 -0.40625 -0.453125q-0.140625 -0.265625 -0.140625 -0.671875q0 -0.5 0.203125 -0.890625q0.203125 -0.390625 0.546875 -0.640625q0.34375 -0.25 0.796875 -0.375q0.46875 -0.140625 0.984375 -0.140625q0.78125 0 1.421875 0.25q0.640625 0.25 1.03125 0.671875l-0.4375 0.515625q-0.375 -0.390625 -0.921875 -0.578125q-0.53125 -0.203125 -1.109375 -0.203125q-0.359375 0 -0.65625 0.078125q-0.296875 0.078125 -0.53125 0.234375q-0.21875 0.15625 -0.359375 0.390625q-0.125 0.234375 -0.125 0.5625q0 0.28125 0.09375 0.453125q0.09375 0.15625 0.296875 0.28125q0.203125 0.125 0.515625 0.234375q0.328125 0.09375 0.78125 0.1875q0.65625 0.15625 1.140625 0.3125q0.5 0.15625 0.828125 0.375q0.34375 0.203125 0.5 0.5q0.171875 0.296875 0.171875 0.734375q0 0.921875 -0.71875 1.46875q-0.703125 0.546875 -1.921875 0.546875zm16.170685 -6.890625l0.875 0l-2.90625 6.765625l-0.734375 0l-1.453125 -3.453125l-1.453125 3.453125l-0.71875 0l-2.921875 -6.765625l0.859375 0l2.46875 5.859375l1.296875 -3.09375l-1.15625 -2.765625l0.734375 0l0.890625 2.21875l0.875 -2.21875l0.765625 0l-1.15625 2.765625l1.28125 3.09375l2.453125 -5.859375zm5.241974 6.890625q-0.75 0 -1.375 -0.265625q-0.609375 -0.28125 -1.0625 -0.765625q-0.453125 -0.5 -0.71875 -1.125q-0.25 -0.640625 -0.25 -1.375q0 -0.71875 0.25 -1.34375q0.265625 -0.625 0.703125 -1.09375q0.453125 -0.484375 1.078125 -0.765625q0.625 -0.28125 1.359375 -0.28125q0.734375 0 1.34375 0.28125q0.625 0.28125 1.0625 0.765625q0.453125 0.46875 0.6875 1.09375q0.25 0.625 0.25 1.328125q0 0.109375 0 0.21875q0 0.09375 0 0.140625l-5.796875 0q0.03125 0.546875 0.234375 1.015625q0.21875 0.453125 0.5625 0.796875q0.34375 0.328125 0.765625 0.515625q0.4375 0.1875 0.9375 0.1875q0.328125 0 0.640625 -0.09375q0.328125 -0.09375 0.59375 -0.25q0.28125 -0.15625 0.5 -0.375q0.234375 -0.234375 0.34375 -0.5l0.765625 0.203125q-0.15625 0.375 -0.4375 0.6875q-0.28125 0.296875 -0.671875 0.53125q-0.375 0.234375 -0.828125 0.34375q-0.453125 0.125 -0.9375 0.125zm2.484375 -3.875q-0.03125 -0.546875 -0.25 -0.984375q-0.21875 -0.453125 -0.546875 -0.78125q-0.328125 -0.328125 -0.765625 -0.5q-0.4375 -0.1875 -0.921875 -0.1875q-0.5 0 -0.953125 0.1875q-0.4375 0.171875 -0.765625 0.5q-0.328125 0.328125 -0.53125 0.78125q-0.203125 0.453125 -0.234375 0.984375l4.96875 0zm5.729828 3.875q-0.8125 0 -1.484375 -0.390625q-0.671875 -0.40625 -1.046875 -1.046875l0 1.3125l-0.796875 0l0 -9.484375l0.890625 0l0 4.125q0.453125 -0.6875 1.09375 -1.109375q0.640625 -0.421875 1.484375 -0.421875q0.703125 0 1.265625 0.296875q0.578125 0.296875 0.96876526 0.796875q0.40625 0.5 0.609375 1.140625q0.21875 0.625 0.21875 1.296875q0 0.703125 -0.25 1.34375q-0.25 0.640625 -0.671875 1.125q-0.42189026 0.46875 -1.0156403 0.75q-0.59375 0.265625 -1.265625 0.265625zm-0.21875 -0.78125q0.5625 0 1.015625 -0.21875q0.46875 -0.234375 0.796875 -0.609375q0.34375 -0.390625 0.53126526 -0.875q0.1875 -0.484375 0.1875 -1.0q0 -0.546875 -0.1875 -1.03125q-0.17189026 -0.5 -0.50001526 -0.875q-0.3125 -0.390625 -0.765625 -0.609375q-0.4375 -0.234375 -0.96875 -0.234375q-0.40625 0 -0.765625 0.140625q-0.34375 0.125 -0.640625 0.359375q-0.296875 0.234375 -0.53125 0.546875q-0.234375 0.296875 -0.390625 0.640625l0 2.109375q0.046875 0.34375 0.265625 0.65625q0.234375 0.296875 0.546875 0.53125q0.328125 0.21875 0.703125 0.34375q0.375 0.125 0.703125 0.125zm7.3640594 0.78125q-0.78125 0 -1.546875 -0.25q-0.75 -0.265625 -1.296875 -0.765625l0.40625 -0.59375q0.578125 0.46875 1.15625 0.703125q0.59375 0.234375 1.28125 0.234375q0.8125 0 1.296875 -0.328125q0.484375 -0.328125 0.484375 -0.9375q0 -0.296875 -0.125 -0.484375q-0.125 -0.1875 -0.390625 -0.328125q-0.25 -0.140625 -0.640625 -0.25q-0.375 -0.109375 -0.875 -0.234375q-0.59375 -0.140625 -1.03125 -0.28125q-0.421875 -0.140625 -0.703125 -0.328125q-0.265625 -0.1875 -0.40625 -0.453125q-0.140625 -0.265625 -0.140625 -0.671875q0 -0.5 0.203125 -0.890625q0.203125 -0.390625 0.546875 -0.640625q0.34375 -0.25 0.796875 -0.375q0.46875 -0.140625 0.984375 -0.140625q0.78125 0 1.421875 0.25q0.640625 0.25 1.03125 0.671875l-0.4375 0.515625q-0.375 -0.390625 -0.921875 -0.578125q-0.53125 -0.203125 -1.109375 -0.203125q-0.359375 0 -0.65625 0.078125q-0.296875 0.078125 -0.53125 0.234375q-0.21875 0.15625 -0.359375 0.390625q-0.125 0.234375 -0.125 0.5625q0 0.28125 0.09375 0.453125q0.09375 0.15625 0.296875 0.28125q0.203125 0.125 0.515625 0.234375q0.328125 0.09375 0.78125 0.1875q0.65625 0.15625 1.140625 0.3125q0.5 0.15625 0.828125 0.375q0.34375 0.203125 0.5 0.5q0.171875 0.296875 0.171875 0.734375q0 0.921875 -0.71875 1.46875q-0.703125 0.546875 -1.921875 0.546875zm4.240753 -0.125l0 -6.765625l0.890625 0l0 6.765625l-0.890625 0zm0 -8.1875l0 -1.296875l0.890625 0l0 1.296875l-0.890625 0zm6.1555176 7.859375q-0.078125 0.046875 -0.234375 0.109375q-0.140625 0.0625 -0.34375 0.125q-0.1875 0.0625 -0.4375 0.109375q-0.234375 0.0625 -0.515625 0.0625q-0.28125 0 -0.546875 -0.078125q-0.25 -0.078125 -0.453125 -0.234375q-0.1875 -0.171875 -0.3125 -0.40625q-0.109375 -0.25 -0.109375 -0.578125l0 -4.859375l-0.9375 0l0 -0.6875l0.9375 0l0 -2.296875l0.875 0l0 2.296875l1.5625 0l0 0.6875l-1.5625 0l0 4.609375q0.03125 0.375 0.265625 0.5625q0.25 0.171875 0.5625 0.171875q0.375 0 0.65625 -0.125q0.28125 -0.125 0.359375 -0.1875l0.234375 0.71875zm4.152405 0.453125q-0.75 0 -1.375 -0.265625q-0.609375 -0.28125 -1.0625 -0.765625q-0.453125 -0.5 -0.71875 -1.125q-0.25 -0.640625 -0.25 -1.375q0 -0.71875 0.25 -1.34375q0.265625 -0.625 0.703125 -1.09375q0.453125 -0.484375 1.078125 -0.765625q0.625 -0.28125 1.359375 -0.28125q0.734375 0 1.34375 0.28125q0.625 0.28125 1.0625 0.765625q0.453125 0.46875 0.6875 1.09375q0.25 0.625 0.25 1.328125q0 0.109375 0 0.21875q0 0.09375 0 0.140625l-5.796875 0q0.03125 0.546875 0.234375 1.015625q0.21875 0.453125 0.5625 0.796875q0.34375 0.328125 0.765625 0.515625q0.4375 0.1875 0.9375 0.1875q0.328125 0 0.640625 -0.09375q0.328125 -0.09375 0.59375 -0.25q0.28125 -0.15625 0.5 -0.375q0.234375 -0.234375 0.34375 -0.5l0.765625 0.203125q-0.15625 0.375 -0.4375 0.6875q-0.28125 0.296875 -0.671875 0.53125q-0.375 0.234375 -0.828125 0.34375q-0.453125 0.125 -0.9375 0.125zm2.484375 -3.875q-0.03125 -0.546875 -0.25 -0.984375q-0.21875 -0.453125 -0.546875 -0.78125q-0.328125 -0.328125 -0.765625 -0.5q-0.4375 -0.1875 -0.921875 -0.1875q-0.5 0 -0.953125 0.1875q-0.4375 0.171875 -0.765625 0.5q-0.328125 0.328125 -0.53125 0.78125q-0.203125 0.453125 -0.234375 0.984375l4.96875 0zm11.5035095 3.75l-0.890625 0l0 -3.78125q0 -1.15625 -0.40625 -1.71875q-0.390625 -0.578125 -1.15625 -0.578125q-0.375 0 -0.75 0.15625q-0.359375 0.140625 -0.6875 0.40625q-0.328125 0.25 -0.578125 0.609375q-0.234375 0.34375 -0.34375 0.765625l0 4.140625l-0.890625 0l0 -9.484375l0.890625 0l0 4.25q0.40625 -0.765625 1.109375 -1.203125q0.71875 -0.453125 1.5625 -0.453125q0.578125 0 0.984375 0.21875q0.40625 0.203125 0.65625 0.59375q0.265625 0.390625 0.375 0.9375q0.125 0.53125 0.125 1.171875l0 3.96875zm3.7702637 0.125q-0.46875 0 -0.890625 -0.15625q-0.40625 -0.15625 -0.71875 -0.4375q-0.296875 -0.296875 -0.46875 -0.671875q-0.171875 -0.390625 -0.171875 -0.828125q0 -0.453125 0.203125 -0.828125q0.21875 -0.375 0.59375 -0.640625q0.375 -0.28125 0.890625 -0.421875q0.53125 -0.15625 1.15625 -0.15625q0.515625 0 1.046875 0.09375q0.53125 0.09375 0.953125 0.25l0 -0.609375q0 -0.890625 -0.515625 -1.421875q-0.5 -0.53125 -1.390625 -0.53125q-0.53125 0 -1.078125 0.21875q-0.546875 0.203125 -1.09375 0.59375l-0.3125 -0.578125q1.3125 -0.890625 2.546875 -0.890625q1.265625 0 2.0 0.71875q0.734375 0.71875 0.734375 1.96875l0 3.0625q0 0.359375 0.3125 0.359375l0 0.78125q-0.21875 0.03125 -0.328125 0.03125q-0.34375 0 -0.53125 -0.15625q-0.1875 -0.171875 -0.203125 -0.46875l-0.03125 -0.53125q-0.46875 0.609375 -1.171875 0.9375q-0.703125 0.3125 -1.53125 0.3125zm0.21875 -0.671875q0.6875 0 1.265625 -0.25q0.578125 -0.265625 0.875 -0.703125q0.109375 -0.109375 0.171875 -0.25q0.0625 -0.140625 0.0625 -0.25l0 -1.109375q-0.4375 -0.171875 -0.921875 -0.25q-0.46875 -0.09375 -0.96875 -0.09375q-0.9375 0 -1.515625 0.390625q-0.578125 0.390625 -0.578125 1.015625q0 0.3125 0.109375 0.59375q0.125 0.265625 0.34375 0.46875q0.21875 0.203125 0.515625 0.328125q0.296875 0.109375 0.640625 0.109375zm7.591919 0.671875q-0.78125 0 -1.546875 -0.25q-0.75 -0.265625 -1.296875 -0.765625l0.40625 -0.59375q0.578125 0.46875 1.15625 0.703125q0.59375 0.234375 1.28125 0.234375q0.8125 0 1.296875 -0.328125q0.484375 -0.328125 0.484375 -0.9375q0 -0.296875 -0.125 -0.484375q-0.125 -0.1875 -0.390625 -0.328125q-0.25 -0.140625 -0.640625 -0.25q-0.375 -0.109375 -0.875 -0.234375q-0.59375 -0.140625 -1.03125 -0.28125q-0.421875 -0.140625 -0.703125 -0.328125q-0.265625 -0.1875 -0.40625 -0.453125q-0.140625 -0.265625 -0.140625 -0.671875q0 -0.5 0.203125 -0.890625q0.203125 -0.390625 0.546875 -0.640625q0.34375 -0.25 0.796875 -0.375q0.46875 -0.140625 0.984375 -0.140625q0.78125 0 1.421875 0.25q0.640625 0.25 1.03125 0.671875l-0.4375 0.515625q-0.375 -0.390625 -0.921875 -0.578125q-0.53125 -0.203125 -1.109375 -0.203125q-0.359375 0 -0.65625 0.078125q-0.296875 0.078125 -0.53125 0.234375q-0.21875 0.15625 -0.359375 0.390625q-0.125 0.234375 -0.125 0.5625q0 0.28125 0.09375 0.453125q0.09375 0.15625 0.296875 0.28125q0.203125 0.125 0.515625 0.234375q0.328125 0.09375 0.78125 0.1875q0.65625 0.15625 1.140625 0.3125q0.5 0.15625 0.828125 0.375q0.34375 0.203125 0.5 0.5q0.171875 0.296875 0.171875 0.734375q0 0.921875 -0.71875 1.46875q-0.703125 0.546875 -1.921875 0.546875zm10.96756 0q-0.8125 0 -1.484375 -0.390625q-0.671875 -0.40625 -1.046875 -1.046875l0 1.3125l-0.796875 0l0 -9.484375l0.890625 0l0 4.125q0.453125 -0.6875 1.09375 -1.109375q0.640625 -0.421875 1.484375 -0.421875q0.703125 0 1.265625 0.296875q0.578125 0.296875 0.96875 0.796875q0.40625 0.5 0.609375 1.140625q0.21875 0.625 0.21875 1.296875q0 0.703125 -0.25 1.34375q-0.25 0.640625 -0.671875 1.125q-0.421875 0.46875 -1.015625 0.75q-0.59375 0.265625 -1.265625 0.265625zm-0.21875 -0.78125q0.5625 0 1.015625 -0.21875q0.46875 -0.234375 0.796875 -0.609375q0.34375 -0.390625 0.53125 -0.875q0.1875 -0.484375 0.1875 -1.0q0 -0.546875 -0.1875 -1.03125q-0.171875 -0.5 -0.5 -0.875q-0.3125 -0.390625 -0.765625 -0.609375q-0.4375 -0.234375 -0.96875 -0.234375q-0.40625 0 -0.765625 0.140625q-0.34375 0.125 -0.640625 0.359375q-0.296875 0.234375 -0.53125 0.546875q-0.234375 0.296875 -0.390625 0.640625l0 2.109375q0.046875 0.34375 0.265625 0.65625q0.234375 0.296875 0.546875 0.53125q0.328125 0.21875 0.703125 0.34375q0.375 0.125 0.703125 0.125zm8.051544 0.78125q-0.75 0 -1.375 -0.265625q-0.609375 -0.28125 -1.0625 -0.765625q-0.453125 -0.5 -0.71875 -1.125q-0.25 -0.640625 -0.25 -1.375q0 -0.71875 0.25 -1.34375q0.265625 -0.625 0.703125 -1.09375q0.453125 -0.484375 1.078125 -0.765625q0.625 -0.28125 1.359375 -0.28125q0.734375 0 1.34375 0.28125q0.625 0.28125 1.0625 0.765625q0.453125 0.46875 0.6875 1.09375q0.25 0.625 0.25 1.328125q0 0.109375 0 0.21875q0 0.09375 0 0.140625l-5.796875 0q0.03125 0.546875 0.234375 1.015625q0.21875 0.453125 0.5625 0.796875q0.34375 0.328125 0.765625 0.515625q0.4375 0.1875 0.9375 0.1875q0.328125 0 0.640625 -0.09375q0.328125 -0.09375 0.59375 -0.25q0.28125 -0.15625 0.5 -0.375q0.234375 -0.234375 0.34375 -0.5l0.765625 0.203125q-0.15625 0.375 -0.4375 0.6875q-0.28125 0.296875 -0.671875 0.53125q-0.375 0.234375 -0.828125 0.34375q-0.453125 0.125 -0.9375 0.125zm2.484375 -3.875q-0.03125 -0.546875 -0.25 -0.984375q-0.21875 -0.453125 -0.546875 -0.78125q-0.328125 -0.328125 -0.765625 -0.5q-0.4375 -0.1875 -0.921875 -0.1875q-0.5 0 -0.953125 0.1875q-0.4375 0.171875 -0.765625 0.5q-0.328125 0.328125 -0.53125 0.78125q-0.203125 0.453125 -0.234375 0.984375l4.96875 0zm5.339203 3.875q-0.75 0 -1.375 -0.265625q-0.609375 -0.28125 -1.0625 -0.765625q-0.453125 -0.5 -0.71875 -1.125q-0.25 -0.640625 -0.25 -1.375q0 -0.71875 0.25 -1.34375q0.265625 -0.625 0.703125 -1.09375q0.453125 -0.484375 1.078125 -0.765625q0.625 -0.28125 1.359375 -0.28125q0.734375 0 1.34375 0.28125q0.625 0.28125 1.0625 0.765625q0.453125 0.46875 0.6875 1.09375q0.25 0.625 0.25 1.328125q0 0.109375 0 0.21875q0 0.09375 0 0.140625l-5.796875 0q0.03125 0.546875 0.234375 1.015625q0.21875 0.453125 0.5625 0.796875q0.34375 0.328125 0.765625 0.515625q0.4375 0.1875 0.9375 0.1875q0.328125 0 0.640625 -0.09375q0.328125 -0.09375 0.59375 -0.25q0.28125 -0.15625 0.5 -0.375q0.234375 -0.234375 0.34375 -0.5l0.765625 0.203125q-0.15625 0.375 -0.4375 0.6875q-0.28125 0.296875 -0.671875 0.53125q-0.375 0.234375 -0.828125 0.34375q-0.453125 0.125 -0.9375 0.125zm2.484375 -3.875q-0.03125 -0.546875 -0.25 -0.984375q-0.21875 -0.453125 -0.546875 -0.78125q-0.328125 -0.328125 -0.765625 -0.5q-0.4375 -0.1875 -0.921875 -0.1875q-0.5 0 -0.953125 0.1875q-0.4375 0.171875 -0.765625 0.5q-0.328125 0.328125 -0.53125 0.78125q-0.203125 0.453125 -0.234375 0.984375l4.96875 0zm8.104828 3.75l-0.890625 0l0 -3.78125q0 -1.203125 -0.359375 -1.75q-0.359375 -0.546875 -1.09375 -0.546875q-0.390625 0 -0.78125 0.140625q-0.390625 0.140625 -0.71875 0.40625q-0.328125 0.25 -0.59375 0.609375q-0.265625 0.359375 -0.375 0.78125l0 4.140625l-0.890625 0l0 -6.765625l0.8125 0l0 1.53125q0.421875 -0.75 1.1875 -1.203125q0.78125 -0.453125 1.6875 -0.453125q0.5625 0 0.953125 0.21875q0.390625 0.203125 0.625 0.578125q0.234375 0.375 0.328125 0.921875q0.109375 0.546875 0.109375 1.203125l0 3.96875zm8.793915 0.125q-0.8125 0 -1.484375 -0.390625q-0.671875 -0.40625 -1.046875 -1.046875l0 1.3125l-0.796875 0l0 -9.484375l0.890625 0l0 4.125q0.453125 -0.6875 1.09375 -1.109375q0.640625 -0.421875 1.484375 -0.421875q0.703125 0 1.265625 0.296875q0.578125 0.296875 0.96875 0.796875q0.40625 0.5 0.609375 1.140625q0.21875 0.625 0.21875 1.296875q0 0.703125 -0.25 1.34375q-0.25 0.640625 -0.671875 1.125q-0.421875 0.46875 -1.015625 0.75q-0.59375 0.265625 -1.265625 0.265625zm-0.21875 -0.78125q0.5625 0 1.015625 -0.21875q0.46875 -0.234375 0.796875 -0.609375q0.34375 -0.390625 0.53125 -0.875q0.1875 -0.484375 0.1875 -1.0q0 -0.546875 -0.1875 -1.03125q-0.171875 -0.5 -0.5 -0.875q-0.3125 -0.390625 -0.765625 -0.609375q-0.4375 -0.234375 -0.96875 -0.234375q-0.40625 0 -0.765625 0.140625q-0.34375 0.125 -0.640625 0.359375q-0.296875 0.234375 -0.53125 0.546875q-0.234375 0.296875 -0.390625 0.640625l0 2.109375q0.046875 0.34375 0.265625 0.65625q0.234375 0.296875 0.546875 0.53125q0.328125 0.21875 0.703125 0.34375q0.375 0.125 0.703125 0.125zm5.160919 -8.828125l0.875 0l0 7.953125q0 0.375 0.203125 0.59375q0.21875 0.203125 0.59375 0.203125q0.140625 0 0.328125 -0.03125q0.203125 -0.046875 0.375 -0.109375l0.15625 0.71875q-0.25 0.109375 -0.609375 0.171875q-0.34375 0.0625 -0.609375 0.0625q-0.609375 0 -0.96875 -0.34375q-0.34375 -0.34375 -0.34375 -0.96875l0 -8.25zm6.468994 9.609375q-0.734375 0 -1.359375 -0.265625q-0.609375 -0.28125 -1.0625 -0.765625q-0.4375 -0.484375 -0.6875 -1.125q-0.25 -0.640625 -0.25 -1.328125q0 -0.71875 0.25 -1.359375q0.265625 -0.640625 0.703125 -1.109375q0.453125 -0.484375 1.0625 -0.765625q0.625 -0.296875 1.34375 -0.296875q0.734375 0 1.34375 0.296875q0.625 0.28125 1.0625 0.765625q0.453125 0.46875 0.703125 1.109375q0.265625 0.640625 0.265625 1.359375q0 0.6875 -0.25 1.328125q-0.25 0.640625 -0.703125 1.125q-0.4375 0.484375 -1.0625 0.765625q-0.609375 0.265625 -1.359375 0.265625zm-2.453125 -3.484375q0 0.578125 0.1875 1.0625q0.203125 0.484375 0.53125 0.859375q0.328125 0.375 0.78125 0.578125q0.453125 0.203125 0.953125 0.203125q0.515625 0 0.953125 -0.203125q0.453125 -0.21875 0.78125 -0.578125q0.34375 -0.375 0.53125 -0.875q0.203125 -0.5 0.203125 -1.0625q0 -0.5625 -0.203125 -1.0625q-0.1875 -0.5 -0.53125 -0.875q-0.328125 -0.375 -0.78125 -0.578125q-0.4375 -0.21875 -0.953125 -0.21875q-0.5 0 -0.953125 0.21875q-0.4375 0.203125 -0.78125 0.59375q-0.328125 0.375 -0.53125 0.875q-0.1875 0.5 -0.1875 1.0625zm7.0239563 -0.046875q0 -0.71875 0.25 -1.34375q0.25 -0.640625 0.6875 -1.109375q0.453125 -0.484375 1.078125 -0.75q0.625 -0.28125 1.390625 -0.28125q0.953125 0 1.671875 0.4375q0.71875 0.4375 1.078125 1.171875l-0.859375 0.28125q-0.28125 -0.53125 -0.796875 -0.8125q-0.515625 -0.296875 -1.140625 -0.296875q-0.515625 0 -0.96875 0.21875q-0.453125 0.203125 -0.78125 0.5625q-0.328125 0.34375 -0.515625 0.84375q-0.1875 0.5 -0.1875 1.078125q0 0.578125 0.1875 1.09375q0.203125 0.5 0.53125 0.875q0.34375 0.359375 0.78125 0.578125q0.453125 0.203125 0.96875 0.203125q0.328125 0 0.640625 -0.078125q0.328125 -0.09375 0.59375 -0.25q0.265625 -0.171875 0.453125 -0.375q0.203125 -0.21875 0.28125 -0.453125l0.875 0.265625q-0.140625 0.359375 -0.421875 0.671875q-0.265625 0.296875 -0.640625 0.53125q-0.359375 0.234375 -0.8125 0.34375q-0.453125 0.125 -0.9375 0.125q-0.734375 0 -1.359375 -0.265625q-0.625 -0.28125 -1.078125 -0.765625q-0.453125 -0.5 -0.71875 -1.125q-0.25 -0.640625 -0.25 -1.375zm12.629608 3.40625l-2.5 -3.46875l-1.453125 1.34375l0 2.125l-0.890625 0l0 -9.484375l0.890625 0l0 6.4375l3.8125 -3.71875l1.0 0l-2.765625 2.78125l2.859375 3.984375l-0.953125 0zm5.1576233 0.125q-0.75 0 -1.375 -0.265625q-0.609375 -0.28125 -1.0625 -0.765625q-0.453125 -0.5 -0.71875 -1.125q-0.25 -0.640625 -0.25 -1.375q0 -0.71875 0.25 -1.34375q0.265625 -0.625 0.703125 -1.09375q0.453125 -0.484375 1.078125 -0.765625q0.625 -0.28125 1.359375 -0.28125q0.734375 0 1.34375 0.28125q0.625 0.28125 1.0625 0.765625q0.453125 0.46875 0.6875 1.09375q0.25 0.625 0.25 1.328125q0 0.109375 0 0.21875q0 0.09375 0 0.140625l-5.796875 0q0.03125 0.546875 0.234375 1.015625q0.21875 0.453125 0.5625 0.796875q0.34375 0.328125 0.765625 0.515625q0.4375 0.1875 0.9375 0.1875q0.328125 0 0.640625 -0.09375q0.328125 -0.09375 0.59375 -0.25q0.28125 -0.15625 0.5 -0.375q0.234375 -0.234375 0.34375 -0.5l0.765625 0.203125q-0.15625 0.375 -0.4375 0.6875q-0.28125 0.296875 -0.671875 0.53125q-0.375 0.234375 -0.828125 0.34375q-0.453125 0.125 -0.9375 0.125zm2.484375 -3.875q-0.03125 -0.546875 -0.25 -0.984375q-0.21875 -0.453125 -0.546875 -0.78125q-0.328125 -0.328125 -0.765625 -0.5q-0.4375 -0.1875 -0.921875 -0.1875q-0.5 0 -0.953125 0.1875q-0.4375 0.171875 -0.765625 0.5q-0.328125 0.328125 -0.53125 0.78125q-0.203125 0.453125 -0.234375 0.984375l4.96875 0zm5.182953 3.875q-0.6875 0 -1.296875 -0.28125q-0.59375 -0.296875 -1.03125 -0.78125q-0.421875 -0.484375 -0.671875 -1.109375q-0.234375 -0.625 -0.234375 -1.3125q0 -0.71875 0.234375 -1.359375q0.234375 -0.65625 0.640625 -1.125q0.421875 -0.484375 0.984375 -0.765625q0.5625 -0.28125 1.234375 -0.28125q0.859375 0 1.515625 0.453125q0.671875 0.4375 1.046875 1.078125l0 -4.125l0.890625 0l0 8.34375q0 0.359375 0.3125 0.359375l0 0.78125q-0.203125 0.03125 -0.3125 0.03125q-0.3125 0 -0.546875 -0.1875q-0.234375 -0.203125 -0.234375 -0.5l0 -0.65625q-0.40625 0.65625 -1.09375 1.046875q-0.6875 0.390625 -1.4375 0.390625zm0.203125 -0.78125q0.328125 0 0.6875 -0.125q0.375 -0.125 0.703125 -0.34375q0.328125 -0.234375 0.546875 -0.53125q0.234375 -0.3125 0.28125 -0.671875l0 -2.09375q-0.125 -0.34375 -0.375 -0.640625q-0.25 -0.3125 -0.578125 -0.546875q-0.3125 -0.234375 -0.671875 -0.359375q-0.359375 -0.140625 -0.71875 -0.140625q-0.546875 0 -0.984375 0.234375q-0.4375 0.234375 -0.765625 0.625q-0.3125 0.375 -0.484375 0.875q-0.15625 0.484375 -0.15625 1.015625q0 0.53125 0.1875 1.03125q0.1875 0.5 0.53125 0.875q0.34375 0.359375 0.796875 0.578125q0.46875 0.21875 1.0 0.21875zm12.032501 0.78125q-0.8125 0 -1.484375 -0.390625q-0.671875 -0.40625 -1.046875 -1.046875l0 1.3125l-0.796875 0l0 -9.484375l0.890625 0l0 4.125q0.453125 -0.6875 1.09375 -1.109375q0.640625 -0.421875 1.484375 -0.421875q0.703125 0 1.265625 0.296875q0.578125 0.296875 0.96875 0.796875q0.40625 0.5 0.609375 1.140625q0.21875 0.625 0.21875 1.296875q0 0.703125 -0.25 1.34375q-0.25 0.640625 -0.671875 1.125q-0.421875 0.46875 -1.015625 0.75q-0.59375 0.265625 -1.265625 0.265625zm-0.21875 -0.78125q0.5625 0 1.015625 -0.21875q0.46875 -0.234375 0.796875 -0.609375q0.34375 -0.390625 0.53125 -0.875q0.1875 -0.484375 0.1875 -1.0q0 -0.546875 -0.1875 -1.03125q-0.171875 -0.5 -0.5 -0.875q-0.3125 -0.390625 -0.765625 -0.609375q-0.4375 -0.234375 -0.96875 -0.234375q-0.40625 0 -0.765625 0.140625q-0.34375 0.125 -0.640625 0.359375q-0.296875 0.234375 -0.53125 0.546875q-0.234375 0.296875 -0.390625 0.640625l0 2.109375q0.046875 0.34375 0.265625 0.65625q0.234375 0.296875 0.546875 0.53125q0.328125 0.21875 0.703125 0.34375q0.375 0.125 0.703125 0.125zm5.504669 2.734375q0.109375 0.015625 0.203125 0.015625q0.09375 0.015625 0.1875 0.015625q0.234375 0 0.375 -0.078125q0.140625 -0.0625 0.265625 -0.28125q0.125 -0.21875 0.28125 -0.640625q0.171875 -0.40625 0.46875 -1.109375l-2.953125 -6.765625l0.921875 0l2.5 5.953125l2.328125 -5.953125l0.84375 0l-3.5 8.734375q-0.140625 0.375 -0.484375 0.65625q-0.328125 0.28125 -0.90625 0.28125q-0.125 0 -0.25 -0.015625q-0.109375 0 -0.28125 -0.03125l0 -0.78125zm16.966217 -10.5l-3.28125 0l0 8.421875l-0.90625 0l0 -8.421875l-3.296875 0l0 -0.8125l7.484375 0l0 0.8125zm7.098877 8.421875l-0.890625 0l0 -3.78125q0 -1.15625 -0.40625 -1.71875q-0.390625 -0.578125 -1.15625 -0.578125q-0.375 0 -0.75 0.15625q-0.359375 0.140625 -0.6875 0.40625q-0.328125 0.25 -0.578125 0.609375q-0.234375 0.34375 -0.34375 0.765625l0 4.140625l-0.890625 0l0 -9.484375l0.890625 0l0 4.25q0.40625 -0.765625 1.109375 -1.203125q0.71875 -0.453125 1.5625 -0.453125q0.578125 0 0.984375 0.21875q0.40625 0.203125 0.65625 0.59375q0.265625 0.390625 0.375 0.9375q0.125 0.53125 0.125 1.171875l0 3.96875zm5.0046387 0.125q-0.75 0 -1.375 -0.265625q-0.609375 -0.28125 -1.0625 -0.765625q-0.453125 -0.5 -0.71875 -1.125q-0.25 -0.640625 -0.25 -1.375q0 -0.71875 0.25 -1.34375q0.265625 -0.625 0.703125 -1.09375q0.453125 -0.484375 1.078125 -0.765625q0.625 -0.28125 1.359375 -0.28125q0.734375 0 1.34375 0.28125q0.625 0.28125 1.0625 0.765625q0.453125 0.46875 0.6875 1.09375q0.25 0.625 0.25 1.328125q0 0.109375 0 0.21875q0 0.09375 0 0.140625l-5.796875 0q0.03125 0.546875 0.234375 1.015625q0.21875 0.453125 0.5625 0.796875q0.34375 0.328125 0.765625 0.515625q0.4375 0.1875 0.9375 0.1875q0.328125 0 0.640625 -0.09375q0.328125 -0.09375 0.59375 -0.25q0.28125 -0.15625 0.5 -0.375q0.234375 -0.234375 0.34375 -0.5l0.765625 0.203125q-0.15625 0.375 -0.4375 0.6875q-0.28125 0.296875 -0.671875 0.53125q-0.375 0.234375 -0.828125 0.34375q-0.453125 0.125 -0.9375 0.125zm2.484375 -3.875q-0.03125 -0.546875 -0.25 -0.984375q-0.21875 -0.453125 -0.546875 -0.78125q-0.328125 -0.328125 -0.765625 -0.5q-0.4375 -0.1875 -0.921875 -0.1875q-0.5 0 -0.953125 0.1875q-0.4375 0.171875 -0.765625 0.5q-0.328125 0.328125 -0.53125 0.78125q-0.203125 0.453125 -0.234375 0.984375l4.96875 0zm6.8941345 -3.796875l0 7.546875l-0.90625 0l0 -9.234375l0.703125 0l6.109375 7.6875l0 -7.671875l0.90625 0l0 9.21875l-0.78125 0l-6.03125 -7.546875zm12.133026 7.671875q-0.75 0 -1.375 -0.265625q-0.609375 -0.28125 -1.0625 -0.765625q-0.453125 -0.5 -0.71875 -1.125q-0.25 -0.640625 -0.25 -1.375q0 -0.71875 0.25 -1.34375q0.265625 -0.625 0.703125 -1.09375q0.453125 -0.484375 1.078125 -0.765625q0.625 -0.28125 1.359375 -0.28125q0.734375 0 1.34375 0.28125q0.625 0.28125 1.0625 0.765625q0.453125 0.46875 0.6875 1.09375q0.25 0.625 0.25 1.328125q0 0.109375 0 0.21875q0 0.09375 0 0.140625l-5.796875 0q0.03125 0.546875 0.234375 1.015625q0.21875 0.453125 0.5625 0.796875q0.34375 0.328125 0.765625 0.515625q0.4375 0.1875 0.9375 0.1875q0.328125 0 0.640625 -0.09375q0.328125 -0.09375 0.59375 -0.25q0.28125 -0.15625 0.5 -0.375q0.234375 -0.234375 0.34375 -0.5l0.765625 0.203125q-0.15625 0.375 -0.4375 0.6875q-0.28125 0.296875 -0.671875 0.53125q-0.375 0.234375 -0.828125 0.34375q-0.453125 0.125 -0.9375 0.125zm2.484375 -3.875q-0.03125 -0.546875 -0.25 -0.984375q-0.21875 -0.453125 -0.546875 -0.78125q-0.328125 -0.328125 -0.765625 -0.5q-0.4375 -0.1875 -0.921875 -0.1875q-0.5 0 -0.953125 0.1875q-0.4375 0.171875 -0.765625 0.5q-0.328125 0.328125 -0.53125 0.78125q-0.203125 0.453125 -0.234375 0.984375l4.96875 0zm5.339203 3.875q-0.75 0 -1.375 -0.265625q-0.609375 -0.28125 -1.0625 -0.765625q-0.453125 -0.5 -0.71875 -1.125q-0.25 -0.640625 -0.25 -1.375q0 -0.71875 0.25 -1.34375q0.265625 -0.625 0.703125 -1.09375q0.453125 -0.484375 1.078125 -0.765625q0.625 -0.28125 1.359375 -0.28125q0.734375 0 1.34375 0.28125q0.625 0.28125 1.0625 0.765625q0.453125 0.46875 0.6875 1.09375q0.25 0.625 0.25 1.328125q0 0.109375 0 0.21875q0 0.09375 0 0.140625l-5.796875 0q0.03125 0.546875 0.234375 1.015625q0.21875 0.453125 0.5625 0.796875q0.34375 0.328125 0.765625 0.515625q0.4375 0.1875 0.9375 0.1875q0.328125 0 0.640625 -0.09375q0.328125 -0.09375 0.59375 -0.25q0.28125 -0.15625 0.5 -0.375q0.234375 -0.234375 0.34375 -0.5l0.765625 0.203125q-0.15625 0.375 -0.4375 0.6875q-0.28125 0.296875 -0.671875 0.53125q-0.375 0.234375 -0.828125 0.34375q-0.453125 0.125 -0.9375 0.125zm2.484375 -3.875q-0.03125 -0.546875 -0.25 -0.984375q-0.21875 -0.453125 -0.546875 -0.78125q-0.328125 -0.328125 -0.765625 -0.5q-0.4375 -0.1875 -0.921875 -0.1875q-0.5 0 -0.953125 0.1875q-0.4375 0.171875 -0.765625 0.5q-0.328125 0.328125 -0.53125 0.78125q-0.203125 0.453125 -0.234375 0.984375l4.96875 0zm8.104828 3.75l-0.890625 0l0 -3.78125q0 -1.203125 -0.359375 -1.75q-0.359375 -0.546875 -1.09375 -0.546875q-0.390625 0 -0.78125 0.140625q-0.390625 0.140625 -0.71875 0.40625q-0.328125 0.25 -0.59375 0.609375q-0.265625 0.359375 -0.375 0.78125l0 4.140625l-0.890625 0l0 -6.765625l0.8125 0l0 1.53125q0.421875 -0.75 1.1875 -1.203125q0.78125 -0.453125 1.6875 -0.453125q0.5625 0 0.953125 0.21875q0.390625 0.203125 0.625 0.578125q0.234375 0.375 0.328125 0.921875q0.109375 0.546875 0.109375 1.203125l0 3.96875zm3.7702637 0.125q-0.46875 0 -0.890625 -0.15625q-0.40625 -0.15625 -0.71875 -0.4375q-0.296875 -0.296875 -0.46875 -0.671875q-0.171875 -0.390625 -0.171875 -0.828125q0 -0.453125 0.203125 -0.828125q0.21875 -0.375 0.59375 -0.640625q0.375 -0.28125 0.890625 -0.421875q0.53125 -0.15625 1.15625 -0.15625q0.515625 0 1.046875 0.09375q0.53125 0.09375 0.953125 0.25l0 -0.609375q0 -0.890625 -0.515625 -1.421875q-0.5 -0.53125 -1.390625 -0.53125q-0.53125 0 -1.078125 0.21875q-0.546875 0.203125 -1.09375 0.59375l-0.3125 -0.578125q1.3125 -0.890625 2.546875 -0.890625q1.265625 0 2.0 0.71875q0.734375 0.71875 0.734375 1.96875l0 3.0625q0 0.359375 0.3125 0.359375l0 0.78125q-0.21875 0.03125 -0.328125 0.03125q-0.34375 0 -0.53125 -0.15625q-0.1875 -0.171875 -0.203125 -0.46875l-0.03125 -0.53125q-0.46875 0.609375 -1.171875 0.9375q-0.703125 0.3125 -1.53125 0.3125zm0.21875 -0.671875q0.6875 0 1.265625 -0.25q0.578125 -0.265625 0.875 -0.703125q0.109375 -0.109375 0.171875 -0.25q0.0625 -0.140625 0.0625 -0.25l0 -1.109375q-0.4375 -0.171875 -0.921875 -0.25q-0.46875 -0.09375 -0.96875 -0.09375q-0.9375 0 -1.515625 0.390625q-0.578125 0.390625 -0.578125 1.015625q0 0.3125 0.109375 0.59375q0.125 0.265625 0.34375 0.46875q0.21875 0.203125 0.515625 0.328125q0.296875 0.109375 0.640625 0.109375zm11.045044 0.546875l-0.890625 0l0 -3.78125q0 -1.15625 -0.40625 -1.71875q-0.390625 -0.578125 -1.15625 -0.578125q-0.375 0 -0.75 0.15625q-0.359375 0.140625 -0.6875 0.40625q-0.328125 0.25 -0.578125 0.609375q-0.234375 0.34375 -0.34375 0.765625l0 4.140625l-0.890625 0l0 -9.484375l0.890625 0l0 4.25q0.40625 -0.765625 1.109375 -1.203125q0.71875 -0.453125 1.5625 -0.453125q0.578125 0 0.984375 0.21875q0.40625 0.203125 0.65625 0.59375q0.265625 0.390625 0.375 0.9375q0.125 0.53125 0.125 1.171875l0 3.96875zm4.93454 -1.15625q0.296875 0.1875 0.734375 0.34375q0.453125 0.140625 1.015625 0.140625q0.703125 0 1.125 -0.25q0.421875 -0.265625 0.640625 -0.75q0.21875 -0.5 0.28125 -1.21875q0.0625 -0.71875 0.0625 -1.640625l0 -4.703125l0.921875 0l0 4.703125q0 1.046875 -0.109375 1.921875q-0.09375 0.859375 -0.40625 1.46875q-0.3125 0.609375 -0.90625 0.953125q-0.59375 0.328125 -1.609375 0.328125q-1.171875 0 -2.0 -0.5625l0.25 -0.734375zm9.832672 1.28125q-0.734375 0 -1.359375 -0.265625q-0.609375 -0.28125 -1.0625 -0.765625q-0.4375 -0.484375 -0.6875 -1.125q-0.25 -0.640625 -0.25 -1.328125q0 -0.71875 0.25 -1.359375q0.265625 -0.640625 0.703125 -1.109375q0.453125 -0.484375 1.0625 -0.765625q0.625 -0.296875 1.34375 -0.296875q0.734375 0 1.34375 0.296875q0.625 0.28125 1.0625 0.765625q0.453125 0.46875 0.703125 1.109375q0.265625 0.640625 0.265625 1.359375q0 0.6875 -0.25 1.328125q-0.25 0.640625 -0.703125 1.125q-0.4375 0.484375 -1.0625 0.765625q-0.609375 0.265625 -1.359375 0.265625zm-2.453125 -3.484375q0 0.578125 0.1875 1.0625q0.203125 0.484375 0.53125 0.859375q0.328125 0.375 0.78125 0.578125q0.453125 0.203125 0.953125 0.203125q0.515625 0 0.953125 -0.203125q0.453125 -0.21875 0.78125 -0.578125q0.34375 -0.375 0.53125 -0.875q0.203125 -0.5 0.203125 -1.0625q0 -0.5625 -0.203125 -1.0625q-0.1875 -0.5 -0.53125 -0.875q-0.328125 -0.375 -0.78125 -0.578125q-0.4375 -0.21875 -0.953125 -0.21875q-0.5 0 -0.953125 0.21875q-0.4375 0.203125 -0.78125 0.59375q-0.328125 0.375 -0.53125 0.875q-0.1875 0.5 -0.1875 1.0625zm7.4927063 3.359375l0 -6.765625l0.890625 0l0 6.765625l-0.890625 0zm0 -8.1875l0 -1.296875l0.890625 0l0 1.296875l-0.890625 0zm8.608612 8.1875l-0.890625 0l0 -3.78125q0 -1.203125 -0.359375 -1.75q-0.359375 -0.546875 -1.09375 -0.546875q-0.390625 0 -0.78125 0.140625q-0.390625 0.140625 -0.71875 0.40625q-0.328125 0.25 -0.59375 0.609375q-0.265625 0.359375 -0.375 0.78125l0 4.140625l-0.890625 0l0 -6.765625l0.8125 0l0 1.53125q0.421875 -0.75 1.1875 -1.203125q0.78125 -0.453125 1.6875 -0.453125q0.5625 0 0.953125 0.21875q0.390625 0.203125 0.625 0.578125q0.234375 0.375 0.328125 0.921875q0.109375 0.546875 0.109375 1.203125l0 3.96875zm5.3171387 -0.328125q-0.078125 0.046875 -0.234375 0.109375q-0.140625 0.0625 -0.34375 0.125q-0.1875 0.0625 -0.4375 0.109375q-0.234375 0.0625 -0.515625 0.0625q-0.28125 0 -0.546875 -0.078125q-0.25 -0.078125 -0.453125 -0.234375q-0.1875 -0.171875 -0.3125 -0.40625q-0.109375 -0.25 -0.109375 -0.578125l0 -4.859375l-0.9375 0l0 -0.6875l0.9375 0l0 -2.296875l0.875 0l0 2.296875l1.5625 0l0 0.6875l-1.5625 0l0 4.609375q0.03125 0.375 0.265625 0.5625q0.25 0.171875 0.5625 0.171875q0.375 0 0.65625 -0.125q0.28125 -0.125 0.359375 -0.1875l0.234375 0.71875zm10.191711 -7.171875q-0.390625 -0.4375 -1.046875 -0.703125q-0.640625 -0.28125 -1.46875 -0.28125q-1.21875 0 -1.78125 0.46875q-0.5625 0.453125 -0.5625 1.25q0 0.40625 0.140625 0.671875q0.15625 0.265625 0.46875 0.46875q0.3125 0.1875 0.796875 0.34375q0.5 0.140625 1.15625 0.28125q0.734375 0.15625 1.328125 0.359375q0.59375 0.1875 1.0 0.484375q0.421875 0.28125 0.640625 0.703125q0.234375 0.40625 0.234375 1.03125q0 0.640625 -0.25 1.109375q-0.25 0.46875 -0.6875 0.78125q-0.4375 0.3125 -1.0625 0.46875q-0.609375 0.140625 -1.328125 0.140625q-2.15625 0 -3.703125 -1.34375l0.453125 -0.734375q0.25 0.265625 0.59375 0.5q0.34375 0.21875 0.765625 0.40625q0.421875 0.171875 0.890625 0.265625q0.484375 0.09375 1.015625 0.09375q1.109375 0 1.71875 -0.390625q0.625 -0.390625 0.625 -1.203125q0 -0.421875 -0.171875 -0.71875q-0.171875 -0.296875 -0.53125 -0.5q-0.34375 -0.21875 -0.875 -0.375q-0.515625 -0.15625 -1.203125 -0.3125q-0.71875 -0.171875 -1.265625 -0.34375q-0.546875 -0.1875 -0.9375 -0.453125q-0.375 -0.28125 -0.5625 -0.65625q-0.1875 -0.390625 -0.1875 -0.953125q0 -0.640625 0.234375 -1.140625q0.25 -0.5 0.6875 -0.828125q0.453125 -0.328125 1.046875 -0.5q0.59375 -0.1875 1.328125 -0.1875q0.921875 0 1.640625 0.28125q0.71875 0.28125 1.3125 0.78125l-0.453125 0.734375zm2.043274 4.09375q0 -0.71875 0.25 -1.34375q0.25 -0.640625 0.6875 -1.109375q0.453125 -0.484375 1.078125 -0.75q0.625 -0.28125 1.390625 -0.28125q0.953125 0 1.671875 0.4375q0.71875 0.4375 1.078125 1.171875l-0.859375 0.28125q-0.28125 -0.53125 -0.796875 -0.8125q-0.515625 -0.296875 -1.140625 -0.296875q-0.515625 0 -0.96875 0.21875q-0.453125 0.203125 -0.78125 0.5625q-0.328125 0.34375 -0.515625 0.84375q-0.1875 0.5 -0.1875 1.078125q0 0.578125 0.1875 1.09375q0.203125 0.5 0.53125 0.875q0.34375 0.359375 0.78125 0.578125q0.453125 0.203125 0.96875 0.203125q0.328125 0 0.640625 -0.078125q0.328125 -0.09375 0.59375 -0.25q0.265625 -0.171875 0.453125 -0.375q0.203125 -0.21875 0.28125 -0.453125l0.875 0.265625q-0.140625 0.359375 -0.421875 0.671875q-0.265625 0.296875 -0.640625 0.53125q-0.359375 0.234375 -0.8125 0.34375q-0.453125 0.125 -0.9375 0.125q-0.734375 0 -1.359375 -0.265625q-0.625 -0.28125 -1.078125 -0.765625q-0.453125 -0.5 -0.71875 -1.125q-0.25 -0.640625 -0.25 -1.375zm13.489014 3.40625l-0.890625 0l0 -3.78125q0 -1.15625 -0.40625 -1.71875q-0.390625 -0.578125 -1.15625 -0.578125q-0.375 0 -0.75 0.15625q-0.359375 0.140625 -0.6875 0.40625q-0.328125 0.25 -0.578125 0.609375q-0.234375 0.34375 -0.34375 0.765625l0 4.140625l-0.890625 0l0 -9.484375l0.890625 0l0 4.25q0.40625 -0.765625 1.109375 -1.203125q0.71875 -0.453125 1.5625 -0.453125q0.578125 0 0.984375 0.21875q0.40625 0.203125 0.65625 0.59375q0.265625 0.390625 0.375 0.9375q0.125 0.53125 0.125 1.171875l0 3.96875zm4.9577637 0.125q-0.734375 0 -1.359375 -0.265625q-0.609375 -0.28125 -1.0625 -0.765625q-0.4375 -0.484375 -0.6875 -1.125q-0.25 -0.640625 -0.25 -1.328125q0 -0.71875 0.25 -1.359375q0.265625 -0.640625 0.703125 -1.109375q0.453125 -0.484375 1.0625 -0.765625q0.625 -0.296875 1.34375 -0.296875q0.734375 0 1.34375 0.296875q0.625 0.28125 1.0625 0.765625q0.453125 0.46875 0.703125 1.109375q0.265625 0.640625 0.265625 1.359375q0 0.6875 -0.25 1.328125q-0.25 0.640625 -0.703125 1.125q-0.4375 0.484375 -1.0625 0.765625q-0.609375 0.265625 -1.359375 0.265625zm-2.453125 -3.484375q0 0.578125 0.1875 1.0625q0.203125 0.484375 0.53125 0.859375q0.328125 0.375 0.78125 0.578125q0.453125 0.203125 0.953125 0.203125q0.515625 0 0.953125 -0.203125q0.453125 -0.21875 0.78125 -0.578125q0.34375 -0.375 0.53125 -0.875q0.203125 -0.5 0.203125 -1.0625q0 -0.5625 -0.203125 -1.0625q-0.1875 -0.5 -0.53125 -0.875q-0.328125 -0.375 -0.78125 -0.578125q-0.4375 -0.21875 -0.953125 -0.21875q-0.5 0 -0.953125 0.21875q-0.4375 0.203125 -0.78125 0.59375q-0.328125 0.375 -0.53125 0.875q-0.1875 0.5 -0.1875 1.0625zm10.383301 3.484375q-0.734375 0 -1.359375 -0.265625q-0.609375 -0.28125 -1.0625 -0.765625q-0.4375 -0.484375 -0.6875 -1.125q-0.25 -0.640625 -0.25 -1.328125q0 -0.71875 0.25 -1.359375q0.265625 -0.640625 0.703125 -1.109375q0.453125 -0.484375 1.0625 -0.765625q0.625 -0.296875 1.34375 -0.296875q0.734375 0 1.34375 0.296875q0.625 0.28125 1.0625 0.765625q0.453125 0.46875 0.703125 1.109375q0.265625 0.640625 0.265625 1.359375q0 0.6875 -0.25 1.328125q-0.25 0.640625 -0.703125 1.125q-0.4375 0.484375 -1.0625 0.765625q-0.609375 0.265625 -1.359375 0.265625zm-2.453125 -3.484375q0 0.578125 0.1875 1.0625q0.203125 0.484375 0.53125 0.859375q0.328125 0.375 0.78125 0.578125q0.453125 0.203125 0.953125 0.203125q0.515625 0 0.953125 -0.203125q0.453125 -0.21875 0.78125 -0.578125q0.34375 -0.375 0.53125 -0.875q0.203125 -0.5 0.203125 -1.0625q0 -0.5625 -0.203125 -1.0625q-0.1875 -0.5 -0.53125 -0.875q-0.328125 -0.375 -0.78125 -0.578125q-0.4375 -0.21875 -0.953125 -0.21875q-0.5 0 -0.953125 0.21875q-0.4375 0.203125 -0.78125 0.59375q-0.328125 0.375 -0.53125 0.875q-0.1875 0.5 -0.1875 1.0625zm7.539612 -6.125l0.875 0l0 7.953125q0 0.375 0.203125 0.59375q0.21875 0.203125 0.59375 0.203125q0.140625 0 0.328125 -0.03125q0.203125 -0.046875 0.375 -0.109375l0.15625 0.71875q-0.25 0.109375 -0.609375 0.171875q-0.34375 0.0625 -0.609375 0.0625q-0.609375 0 -0.96875 -0.34375q-0.34375 -0.34375 -0.34375 -0.96875l0 -8.25zm7.1644897 9.484375l0 -9.234375l3.140625 0q1.09375 0 1.921875 0.375q0.828125 0.359375 1.375 0.984375q0.5625 0.625 0.828125 1.46875q0.28125 0.828125 0.28125 1.78125q0 1.046875 -0.3125 1.90625q-0.296875 0.84375 -0.890625 1.453125q-0.578125 0.609375 -1.390625 0.9375q-0.8125 0.328125 -1.8125 0.328125l-3.140625 0zm6.640625 -4.625q0 -0.828125 -0.234375 -1.515625q-0.234375 -0.703125 -0.6875 -1.203125q-0.4375 -0.515625 -1.09375 -0.796875q-0.640625 -0.28125 -1.484375 -0.28125l-2.234375 0l0 7.609375l2.234375 0q0.84375 0 1.5 -0.28125q0.671875 -0.296875 1.109375 -0.8125q0.4375 -0.515625 0.65625 -1.203125q0.234375 -0.703125 0.234375 -1.515625zm2.701477 4.625l0 -6.765625l0.890625 0l0 6.765625l-0.890625 0zm0 -8.1875l0 -1.296875l0.890625 0l0 1.296875l-0.890625 0zm5.1555176 8.3125q-0.78125 0 -1.546875 -0.25q-0.75 -0.265625 -1.296875 -0.765625l0.40625 -0.59375q0.578125 0.46875 1.15625 0.703125q0.59375 0.234375 1.28125 0.234375q0.8125 0 1.296875 -0.328125q0.484375 -0.328125 0.484375 -0.9375q0 -0.296875 -0.125 -0.484375q-0.125 -0.1875 -0.390625 -0.328125q-0.25 -0.140625 -0.640625 -0.25q-0.375 -0.109375 -0.875 -0.234375q-0.59375 -0.140625 -1.03125 -0.28125q-0.421875 -0.140625 -0.703125 -0.328125q-0.265625 -0.1875 -0.40625 -0.453125q-0.140625 -0.265625 -0.140625 -0.671875q0 -0.5 0.203125 -0.890625q0.203125 -0.390625 0.546875 -0.640625q0.34375 -0.25 0.796875 -0.375q0.46875 -0.140625 0.984375 -0.140625q0.78125 0 1.421875 0.25q0.640625 0.25 1.03125 0.671875l-0.4375 0.515625q-0.375 -0.390625 -0.921875 -0.578125q-0.53125 -0.203125 -1.109375 -0.203125q-0.359375 0 -0.65625 0.078125q-0.296875 0.078125 -0.53125 0.234375q-0.21875 0.15625 -0.359375 0.390625q-0.125 0.234375 -0.125 0.5625q0 0.28125 0.09375 0.453125q0.09375 0.15625 0.296875 0.28125q0.203125 0.125 0.515625 0.234375q0.328125 0.09375 0.78125 0.1875q0.65625 0.15625 1.140625 0.3125q0.5 0.15625 0.828125 0.375q0.34375 0.203125 0.5 0.5q0.171875 0.296875 0.171875 0.734375q0 0.921875 -0.71875 1.46875q-0.703125 0.546875 -1.921875 0.546875zm7.4907227 -0.453125q-0.078125 0.046875 -0.234375 0.109375q-0.140625 0.0625 -0.34375 0.125q-0.1875 0.0625 -0.4375 0.109375q-0.234375 0.0625 -0.515625 0.0625q-0.28125 0 -0.546875 -0.078125q-0.25 -0.078125 -0.453125 -0.234375q-0.1875 -0.171875 -0.3125 -0.40625q-0.109375 -0.25 -0.109375 -0.578125l0 -4.859375l-0.9375 0l0 -0.6875l0.9375 0l0 -2.296875l0.875 0l0 2.296875l1.5625 0l0 0.6875l-1.5625 0l0 4.609375q0.03125 0.375 0.265625 0.5625q0.25 0.171875 0.5625 0.171875q0.375 0 0.65625 -0.125q0.28125 -0.125 0.359375 -0.1875l0.234375 0.71875zm4.60553 -5.671875q-0.90625 0.03125 -1.578125 0.5q-0.65625 0.46875 -0.921875 1.28125l0 4.21875l-0.890625 0l0 -6.765625l0.84375 0l0 1.625q0.375 -0.78125 1.0 -1.21875q0.640625 -0.453125 1.375 -0.453125q0.109375 0 0.171875 0.015625l0 0.796875zm1.2875366 6.0l0 -6.765625l0.890625 0l0 6.765625l-0.890625 0zm0 -8.1875l0 -1.296875l0.890625 0l0 1.296875l-0.890625 0zm2.4367676 4.78125q0 -0.71875 0.25 -1.34375q0.25 -0.640625 0.6875 -1.109375q0.453125 -0.484375 1.078125 -0.75q0.625 -0.28125 1.390625 -0.28125q0.953125 0 1.671875 0.4375q0.71875 0.4375 1.078125 1.171875l-0.859375 0.28125q-0.28125 -0.53125 -0.796875 -0.8125q-0.515625 -0.296875 -1.140625 -0.296875q-0.515625 0 -0.96875 0.21875q-0.453125 0.203125 -0.78125 0.5625q-0.328125 0.34375 -0.515625 0.84375q-0.1875 0.5 -0.1875 1.078125q0 0.578125 0.1875 1.09375q0.203125 0.5 0.53125 0.875q0.34375 0.359375 0.78125 0.578125q0.453125 0.203125 0.96875 0.203125q0.328125 0 0.640625 -0.078125q0.328125 -0.09375 0.59375 -0.25q0.265625 -0.171875 0.453125 -0.375q0.203125 -0.21875 0.28125 -0.453125l0.875 0.265625q-0.140625 0.359375 -0.421875 0.671875q-0.265625 0.296875 -0.640625 0.53125q-0.359375 0.234375 -0.8125 0.34375q-0.453125 0.125 -0.9375 0.125q-0.734375 0 -1.359375 -0.265625q-0.625 -0.28125 -1.078125 -0.765625q-0.453125 -0.5 -0.71875 -1.125q-0.25 -0.640625 -0.25 -1.375zm11.035889 3.078125q-0.078125 0.046875 -0.234375 0.109375q-0.140625 0.0625 -0.34375 0.125q-0.1875 0.0625 -0.4375 0.109375q-0.234375 0.0625 -0.515625 0.0625q-0.28125 0 -0.546875 -0.078125q-0.25 -0.078125 -0.453125 -0.234375q-0.1875 -0.171875 -0.3125 -0.40625q-0.109375 -0.25 -0.109375 -0.578125l0 -4.859375l-0.9375 0l0 -0.6875l0.9375 0l0 -2.296875l0.875 0l0 2.296875l1.5625 0l0 0.6875l-1.5625 0l0 4.609375q0.03125 0.375 0.265625 0.5625q0.25 0.171875 0.5625 0.171875q0.375 0 0.65625 -0.125q0.28125 -0.125 0.359375 -0.1875l0.234375 0.71875zm1.0899048 0.328125l0 -1.28125l0.765625 0l0 1.28125l-0.765625 0z" fill-rule="nonzero"></path><path fill="#000000" fill-opacity="0.0" d="m371.1916 351.12073l0 0c0 -17.017761 8.851074 -32.71219 23.153168 -41.054535c14.3020935 -8.342316 31.830963 -8.035126 45.85312 0.80358887c14.022125 8.838715 22.356842 24.83435 21.80243 41.842377l-13.422607 -0.47058105l0 0c0.38464355 -12.156555 -5.4887695 -23.586487 -15.364655 -29.900421c-9.875885 -6.3139343 -22.218903 -6.530243 -32.28897 -0.56588745c-10.070068 5.964386 -16.301666 17.18219 -16.301666 29.345459z" fill-rule="evenodd"></path><path stroke="#000000" stroke-width="1.0" stroke-linejoin="round" stroke-linecap="butt" d="m371.1916 351.12073l0 0c0 -17.017761 8.851074 -32.71219 23.153168 -41.054535c14.3020935 -8.342316 31.830963 -8.035126 45.85312 0.80358887c14.022125 8.838715 22.356842 24.83435 21.80243 41.842377l-13.422607 -0.47058105l0 0c0.38464355 -12.156555 -5.4887695 -23.586487 -15.364655 -29.900421c-9.875885 -6.3139343 -22.218903 -6.530243 -32.28897 -0.56588745c-10.070068 5.964386 -16.301666 17.18219 -16.301666 29.345459z" fill-rule="evenodd"></path><path fill="#000000" fill-opacity="0.0" d="m356.042 370.15518l0 0c0 -8.671478 7.0296326 -15.701111 15.701111 -15.701111l89.73166 0c4.1641846 0 8.157806 1.6542053 11.102356 4.598755c2.944519 2.944519 4.5987244 6.938141 4.5987244 11.102356l0 62.80252c0 8.671478 -7.029602 15.70108 -15.70108 15.70108l-89.73166 0l0 0c-8.671478 0 -15.701111 -7.029602 -15.701111 -15.70108z" fill-rule="evenodd"></path><path stroke="#000000" stroke-width="1.0" stroke-linejoin="round" stroke-linecap="butt" d="m356.042 370.15518l0 0c0 -8.671478 7.0296326 -15.701111 15.701111 -15.701111l89.73166 0c4.1641846 0 8.157806 1.6542053 11.102356 4.598755c2.944519 2.944519 4.5987244 6.938141 4.5987244 11.102356l0 62.80252c0 8.671478 -7.029602 15.70108 -15.70108 15.70108l-89.73166 0l0 0c-8.671478 0 -15.701111 -7.029602 -15.701111 -15.70108z" fill-rule="evenodd"></path></g></svg>

